<?xml version="1.0"?>
<svg xmlns="http://www.w3.org/2000/svg" id="Line_Expand" data-name="Line Expand" viewBox="0 0 64 64" width="512" height="512"><path d="M21.9121,30.59A1,1,0,0,0,21,30H9a1,1,0,0,0-.9121.59L4.165,39.3066A8.9825,8.9825,0,0,0,12,51.9767v5.0624a.9946.9946,0,0,1-.375.78l-4.2495,3.4A1,1,0,0,0,8,63H22a1,1,0,0,0,.6245-1.7812L18.376,57.82A.996.996,0,0,1,18,57.0391V51.9767a8.9825,8.9825,0,0,0,7.835-12.67ZM9.6465,32h10.707l3.28,7.2885-.56.31a7.0558,7.0558,0,0,1-7.643-.5254,9.0268,9.0268,0,0,0-8.3845-1.295Zm9.5024,29H10.8511l2.0239-1.6191A2.9883,2.9883,0,0,0,14,57.0391V52h2v5.0391a2.9893,2.9893,0,0,0,1.126,2.3427Zm4.357-14.1992A6.9755,6.9755,0,0,1,17.6274,50H12.3726a6.9846,6.9846,0,0,1-6.5072-9.5444l1.1991-.55a7.0413,7.0413,0,0,1,7.166.7676,9.0542,9.0542,0,0,0,9.8134.6748l.3294-.1827A6.9645,6.9645,0,0,1,23.5059,46.8008Z"/><path d="M54.0767,32.58l-2.4493-1.958A6.9688,6.9688,0,0,1,49,25.1553V8a1,1,0,0,0,1-1V2a1,1,0,0,0-1-1H39a1,1,0,0,0-1,1V7a1,1,0,0,0,1,1V25.1553a6.9649,6.9649,0,0,1-2.627,5.4658l-2.45,1.96a11.02,11.02,0,0,0-3.99,10.3281l2.6758,16.7226A3.9828,3.9828,0,0,0,36.5581,63H51.4419a3.9828,3.9828,0,0,0,3.95-3.3682l2.6758-16.7236A11.0212,11.0212,0,0,0,54.0767,32.58ZM40,3h8V6H40Zm7,5v8H41V8Zm9.0928,34.5918L53.417,59.3154A1.9914,1.9914,0,0,1,51.4419,61H36.5581a1.9914,1.9914,0,0,1-1.9751-1.6846L31.9072,42.5928a9.0164,9.0164,0,0,1,3.2647-8.4492l2.45-1.96A8.9569,8.9569,0,0,0,41,25.1553V18h6v7.1553a8.96,8.96,0,0,0,3.3779,7.0283l2.45,1.959A9.0165,9.0165,0,0,1,56.0928,42.5918Z"/><path d="M49.86,41.1191C49.2734,39.3135,46.9092,38,44,38s-5.2734,1.3135-5.86,3.1191H34.87a1.0007,1.0007,0,0,0-.9873,1.1582l2.541,15.8809A1,1,0,0,0,37.4106,59H50.5894a1,1,0,0,0,.9873-.8418l2.541-15.8809a1.0007,1.0007,0,0,0-.9873-1.1582ZM49.7368,57H38.2632L36.0425,43.1191H39.02a1,1,0,0,0,.9976-1.0712c-.003-.0391-.0078-.0782-.0147-.1172C40.084,41.0049,41.7666,40,44,40c2.2368,0,3.9214,1.0078,3.9976,1.9346a1.1589,1.1589,0,0,0-.0157.125,1,1,0,0,0,.9981,1.06h2.9775Z"/><path d="M44,36a3.2829,3.2829,0,0,0,3.5-3A3.2829,3.2829,0,0,0,44,30a3.2829,3.2829,0,0,0-3.5,3A3.2829,3.2829,0,0,0,44,36Zm0-4c.7988,0,1.5.4678,1.5,1s-.7012,1-1.5,1-1.5-.4678-1.5-1S43.2012,32,44,32Z"/></svg>
