<svg id="Layer_1" enable-background="new 0 0 64 64" height="512" viewBox="0 0 64 64" width="512" xmlns="http://www.w3.org/2000/svg"><g><path d="m21.6 32.8c-.2-.2-.4-.4-.7-.7 4.5-4.5 9-9 13.5-13.5.7-.7 1.4-1.4 2.1-2.1 1.8-1.8-1-4.7-2.8-2.8-5 5-10 10-14.9 14.9-.7.7-1.4 1.4-2.1 2.1-.8.8-.8 2.1 0 2.8 4.9 4.9 9.8 9.8 14.7 14.7.7.7 1.4 1.4 2.1 2.1 1.8 1.8 4.7-1 2.8-2.8-4.9-5-9.8-9.9-14.7-14.7z"/><path d="m32.6 32.8c-.2-.2-.4-.4-.7-.7 4.5-4.5 9-9 13.5-13.5.7-.7 1.4-1.4 2.1-2.1 1.8-1.8-1-4.7-2.8-2.8-5 5-10 10-14.9 14.9-.7.7-1.4 1.4-2.1 2.1-.8.8-.8 2.1 0 2.8l14.7 14.7 2.1 2.1c1.8 1.8 4.7-1 2.8-2.8-4.9-5-9.8-9.9-14.7-14.7z"/></g></svg>