<svg id="Capa_1" enable-background="new 0 0 512 512" height="512" viewBox="0 0 512 512" width="512" xmlns="http://www.w3.org/2000/svg"><g><g><path d="m146.51 385.154c-3.134.977-5.268 3.878-5.268 7.16v75.817c0 4.143 3.358 7.5 7.5 7.5s7.5-3.357 7.5-7.5v-51.759l37.593 54.436c2.283 3.299 6.06 4.709 9.621 3.6 3.653-1.141 6.014-4.609 6.013-8.909l-.709-73.399c-.04-4.117-3.39-7.428-7.498-7.428-.024 0-.049 0-.074 0-4.142.04-7.467 3.431-7.427 7.572l.51 52.8-39.357-56.991c-1.866-2.702-5.27-3.877-8.404-2.899z"/><path d="m336.834 385.154c-3.134.977-5.268 3.878-5.268 7.16v75.817c0 4.143 3.358 7.5 7.5 7.5s7.5-3.357 7.5-7.5v-51.759l37.593 54.438c2.283 3.297 6.061 4.706 9.622 3.598 3.653-1.142 6.013-4.609 6.012-8.909l-.709-73.399c-.04-4.117-3.39-7.428-7.498-7.428-.024 0-.049 0-.074 0-4.142.04-7.467 3.431-7.427 7.572l.51 52.801-39.357-56.992c-1.865-2.702-5.27-3.874-8.404-2.899z"/><path d="m239.682 384.784c-4.142 0-7.5 3.357-7.5 7.5v75.671c0 3.653 2.632 6.774 6.232 7.392 1.81.313 25.104.124 27.83.108 4.142-.023 7.481-3.399 7.458-7.542-.023-4.128-3.376-7.458-7.499-7.458-.014 0-.029 0-.043 0-6.663.037-13.842.063-18.978.064v-68.235c0-4.143-3.358-7.5-7.5-7.5z"/><path d="m294.427 392.284v75.735c0 4.143 3.358 7.5 7.5 7.5s7.5-3.357 7.5-7.5v-75.735c0-4.143-3.358-7.5-7.5-7.5s-7.5 3.357-7.5 7.5z"/><path d="m457.75 400.129c4.142 0 7.5-3.357 7.5-7.5s-3.358-7.5-7.5-7.5h-31.62c-4.142 0-7.5 3.357-7.5 7.5v75.044c0 4.143 3.358 7.5 7.5 7.5h31.62c4.142 0 7.5-3.357 7.5-7.5s-3.358-7.5-7.5-7.5h-24.12v-22.522h21.789c4.142 0 7.5-3.357 7.5-7.5s-3.358-7.5-7.5-7.5h-21.789v-22.521h24.12z"/><path d="m33.382 430.151c0 25.016 20.352 45.368 45.368 45.368s45.367-20.353 45.367-45.368-20.352-45.367-45.367-45.367-45.368 20.351-45.368 45.367zm75.735 0c0 16.745-13.623 30.368-30.367 30.368s-30.368-13.623-30.368-30.368c0-16.744 13.623-30.367 30.368-30.367s30.367 13.623 30.367 30.367z"/><path d="m163.886 251.537c.543 3.732 3.749 6.42 7.413 6.42.359 0 .724-.026 1.09-.079 4.099-.597 6.938-4.403 6.341-8.503l-12.767-87.684c-.597-4.099-4.404-6.934-8.502-6.341-4.099.597-6.938 4.403-6.341 8.503z"/><path d="m227.763 257.956c.123 0 .246-.003.37-.009 4.137-.201 7.328-3.718 7.127-7.854l-4.255-87.684c-.201-4.137-3.684-7.334-7.855-7.128-4.137.201-7.328 3.718-7.127 7.854l4.255 87.684c.195 4.014 3.51 7.137 7.485 7.137z"/><path d="m283.867 257.947c.124.006.247.009.37.009 3.975 0 7.291-3.123 7.485-7.137l4.255-87.684c.201-4.137-2.99-7.653-7.127-7.854-4.153-.188-7.654 2.99-7.855 7.128l-4.255 87.684c-.201 4.136 2.99 7.653 7.127 7.854z"/><path d="m339.612 257.878c.367.054.73.079 1.09.079 3.664 0 6.869-2.688 7.413-6.42l12.767-87.684c.597-4.1-2.242-7.906-6.341-8.503-4.104-.607-7.906 2.242-8.502 6.341l-12.767 87.684c-.598 4.099 2.241 7.906 6.34 8.503z"/><path d="m483.614 348.348h-67.995c-4.142 0-7.5 3.357-7.5 7.5s3.358 7.5 7.5 7.5h67.995c7.381 0 13.386 6.005 13.386 13.387v106.833c0 7.382-6.005 13.387-13.386 13.387h-455.228c-7.381 0-13.386-6.005-13.386-13.387v-106.833c0-7.382 6.005-13.387 13.386-13.387h352.178c4.142 0 7.5-3.357 7.5-7.5s-3.358-7.5-7.5-7.5h-352.178c-15.652 0-28.386 12.735-28.386 28.387v106.833c0 15.652 12.734 28.387 28.386 28.387h455.228c15.652 0 28.386-12.734 28.386-28.387v-106.833c0-15.652-12.734-28.387-28.386-28.387z"/><path d="m74.708 132.416h7.024l27.057 140.06c3.146 16.279 17.462 28.095 34.042 28.095h226.637c16.58 0 30.896-11.815 34.042-28.095l27.057-140.06h6.725c10.087 0 18.294-8.207 18.294-18.295v-14.556c0-10.088-8.207-18.295-18.294-18.295h-89.957l-75.801-74.891c-8.565-8.443-22.502-8.444-31.057-.01l-76.257 74.9h-26.21c-4.142 0-7.5 3.357-7.5 7.5s3.358 7.5 7.5 7.5h299.283c1.816 0 3.294 1.479 3.294 3.295v14.556c0 1.816-1.478 3.295-3.294 3.295-15.428 0-327.846 0-362.584 0-1.816 0-3.294-1.479-3.294-3.295v-14.555c0-1.816 1.478-3.295 3.294-3.295h28.245c4.142 0 7.5-3.357 7.5-7.5s-3.358-7.5-7.5-7.5h-28.246c-10.087 0-18.294 8.207-18.294 18.295v14.556c0 10.088 8.207 18.295 18.294 18.295zm110.917-51.146 65.372-64.209c2.759-2.719 7.248-2.718 10-.006l64.997 64.215zm229.665 51.146-26.507 137.214c-1.785 9.236-9.908 15.94-19.314 15.94h-226.638c-9.407 0-17.53-6.704-19.314-15.94l-26.508-137.214z"/></g></g></svg>