<svg id="Capa_1" enable-background="new 0 0 511.978 511.978" height="512" viewBox="0 0 511.978 511.978" width="512" xmlns="http://www.w3.org/2000/svg"><g><path d="m462.178 157.739-5.158-89.291c-1.134-19.631-16.793-35.29-36.424-36.424l-156.934-9.066c-7.794-.454-15.433 2.458-20.956 7.98l-198.843 198.843c-2.929 2.929-2.929 7.678 0 10.606 2.929 2.929 7.678 2.929 10.606 0l198.843-198.842c2.5-2.499 5.955-3.818 9.485-3.612l156.934 9.066c12.026.695 21.62 10.288 22.315 22.314l3.981 68.919c-9.242-9.656-19.787-18.31-31.427-24.547-5.195-22.05-25.274-38.224-48.263-38.224-27.335 0-49.573 22.238-49.573 49.573 0 46.998 59.478 67.406 88.47 30.739 19.911 15.274 35.625 41.079 45.506 64.036l.372 6.437c.204 3.528-1.113 6.985-3.612 9.484-212.541 212.541-23.142 23.142-233.101 233.102-6.956 6.958-18.276 6.958-25.234 0l-168.954-168.953c-6.957-6.957-6.957-18.277 0-25.234l8.593-8.593c2.929-2.929 2.929-7.678 0-10.606-2.929-2.929-7.678-2.929-10.606 0l-8.593 8.593c-12.806 12.805-12.806 33.642 0 46.447l168.953 168.954c12.835 12.835 33.61 12.836 46.447 0l113.28-113.28c24.119 40.778 66.009 80.521 111.396 68.361 26.877-7.202 46.906-31.279 56.397-67.794 16.901-65.026-3.977-153.646-43.9-208.988zm-95.841-67.277c11.852 0 22.593 6.16 28.854 15.58-22.989-5.808-45.905.142-63.397 17.546.761-18.395 15.964-33.126 34.543-33.126zm-10.598 67.489c9.942-14.09 21.93-16.688 36.564-10.086-9.122 10.368-23.492 14.283-36.564 10.086zm135.821 205.002c-8.074 31.064-24.326 51.335-45.762 57.079-38.824 10.404-76.366-29.431-96.537-64.849l7.718-7.718c7.636 13.856 16.246 25.965 25.671 36.09 15.618 16.777 38.482 32.217 60.432 26.338 17.437-4.672 30.949-21.902 38.048-48.515 1.067-4.002-1.312-8.112-5.313-9.18-4.004-1.067-8.112 1.311-9.18 5.313-5.576 20.903-15.576 34.714-27.437 37.892-12.542 3.359-29.58-4.89-45.571-22.069-9.437-10.138-18.026-22.549-25.575-36.945 96.33-96.33 90.567-90.486 91.775-91.945 7.909 25.351 12.534 53.514 11.502 80.049-.161 4.139 3.063 7.625 7.203 7.786 4.136.162 7.625-3.062 7.786-7.203 1.402-36.01-6.884-75.912-21.145-109.633-.073-.193-.153-.383-.241-.568-11.842-27.815-31.575-59.379-57.173-75.642-.351-.263-.71-.486-1.089-.68-24.593-15.093-47.955-11.706-63.895 11.775-2.707-2.526-5.007-5.477-6.787-8.722 16.299-21.963 41.329-29.234 68.318-16.317.242.135.493.256.75.364 17.135 8.426 32.042 23.436 43.443 38.777.182.284.382.555.599.811 38.011 51.73 58.321 136.69 42.46 197.712z"/><path d="m242.767 106.914c-5.38-5.381-14.088-5.382-19.47 0l-170.613 170.613c-5.368 5.368-5.368 14.102 0 19.47l139.362 139.362c5.367 5.367 14.101 5.368 19.47 0l170.614-170.613c5.38-5.38 5.38-14.089 0-19.469l-89.842-89.842c-2.929-2.929-7.678-2.929-10.606 0-2.929 2.929-2.929 7.678 0 10.606l88.97 88.97-168.87 168.871-137.62-137.62 168.87-168.87 22.064 22.064c2.929 2.929 7.678 2.929 10.606 0 2.929-2.929 2.929-7.678 0-10.606z"/><path d="m291.762 197.281c-7.798-7.798-20.486-7.798-28.284 0l-5.409 5.409c-19.075-10.594-43.566-7.495-59.334 8.273-19.377 19.378-19.377 50.908 0 70.285l9.06 9.061c1.834 1.834 2.845 4.27 2.845 6.858 0 5.354-4.347 9.704-9.704 9.704-2.588 0-5.024-1.011-6.859-2.845l-9.059-9.059c-2.315-2.315-3.302-5.62-2.64-8.841 2.22-10.802-4.762-21.396-15.563-23.617-10.829-2.227-21.393 4.736-23.618 15.563-2.415 11.747-.496 23.902 5.259 34.23l-5.405 5.405c-7.798 7.798-7.798 20.486 0 28.284s20.486 7.798 28.284 0l5.4-5.4c19.06 10.611 43.553 7.51 59.343-8.282 19.435-19.434 19.439-50.849 0-70.285l-9.06-9.06c-3.78-3.78-3.78-9.937 0-13.717 3.782-3.782 9.936-3.782 13.718 0l9.059 9.059c2.315 2.315 3.302 5.62 2.64 8.84-2.221 10.802 4.761 21.396 15.567 23.619 10.801 2.215 21.395-4.767 23.614-15.564 2.415-11.747.497-23.902-5.259-34.23l5.405-5.405c7.798-7.798 7.798-20.487 0-28.285zm-10.606 17.678-9.683 9.683c-2.635 2.635-2.936 6.805-.706 9.791 5.911 7.915 8.155 18.028 6.157 27.748-.555 2.699-3.202 4.443-5.904 3.891-2.701-.556-4.447-3.205-3.892-5.905 1.681-8.176-.833-16.575-6.726-22.467l-9.059-9.059c-9.63-9.631-25.301-9.631-34.931 0-9.63 9.63-9.63 25.3 0 34.93l9.06 9.061c13.574 13.572 13.575 35.496 0 49.072-12.124 12.125-31.583 13.543-45.265 3.301-2.986-2.236-7.16-1.938-9.798.701l-9.68 9.68c-3.121 3.121-8.536.933-8.536-3.536 0-1.335.52-2.591 1.464-3.536l9.683-9.683c2.635-2.635 2.936-6.805.706-9.791-5.911-7.915-8.155-18.028-6.157-27.748.492-2.399 2.602-3.995 4.886-3.995 3.19 0 5.543 2.926 4.91 6.008-1.681 8.176.833 16.575 6.726 22.467l9.059 9.059c9.658 9.658 25.271 9.66 34.93 0 9.658-9.658 9.66-25.271 0-34.93l-9.06-9.06c-13.529-13.529-13.529-35.542 0-49.072 12.104-12.105 31.566-13.519 45.271-3.291 2.985 2.228 7.155 1.927 9.789-.708l9.684-9.684c.945-.944 2.2-1.464 3.536-1.464 4.451.001 6.666 5.407 3.536 8.537z"/></g></svg>