<svg id="Layer_1" height="512" viewBox="0 0 150 150" width="512" xmlns="http://www.w3.org/2000/svg" data-name="Layer 1"><path d="m128.768 89.382h-72.917a1 1 0 0 1 0-2h72.917a6.5 6.5 0 0 0 6.468-6.055l2.749-41.627a6.481 6.481 0 0 0 -6.468-6.91h-90.395a1 1 0 0 1 0-2h90.4a8.482 8.482 0 0 1 8.464 9.041l-2.749 41.623a8.5 8.5 0 0 1 -8.469 7.928z"/><path d="m128.768 89.882h-72.917a1.5 1.5 0 0 1 0-3h72.917a6 6 0 0 0 5.969-5.588l2.749-41.624a5.982 5.982 0 0 0 -5.969-6.376h-90.395a1.5 1.5 0 0 1 0-3h90.4a8.982 8.982 0 0 1 8.963 9.574l-2.749 41.623a9.007 9.007 0 0 1 -8.968 8.391zm-72.917-2a.5.5 0 0 0 0 1h72.917a8 8 0 0 0 7.965-7.457l2.749-41.625a7.981 7.981 0 0 0 -7.965-8.509h-90.395a.5.5 0 0 0 0 1h90.4a6.98 6.98 0 0 1 6.967 7.443l-2.754 41.626a7 7 0 0 1 -6.967 6.522z"/><path d="m131.249 114.1h-74.572a3.783 3.783 0 0 1 -3.659-2.83l-22.5-86.451a2.253 2.253 0 0 0 -2.18-1.685h-13.6a4.739 4.739 0 0 1 0-9.477h16.762a7.64 7.64 0 0 1 7.391 5.714l22.189 85.252h70.168a1 1 0 0 1 1 1v7.477a1 1 0 0 1 -.999 1zm-116.511-98.44a2.739 2.739 0 0 0 0 5.477h13.6a4.254 4.254 0 0 1 4.116 3.181l22.5 86.452a1.781 1.781 0 0 0 1.723 1.333h73.572v-5.477h-69.941a1 1 0 0 1 -.968-.748l-22.384-86a5.639 5.639 0 0 0 -5.456-4.218z"/><path d="m131.249 114.6h-74.572a4.283 4.283 0 0 1 -4.143-3.2l-22.5-86.451a1.752 1.752 0 0 0 -1.7-1.311h-13.6a5.239 5.239 0 0 1 0-10.477h16.766a8.138 8.138 0 0 1 7.874 6.088l22.092 84.878h69.782a1.5 1.5 0 0 1 1.5 1.5v7.473a1.5 1.5 0 0 1 -1.499 1.5zm-116.511-100.44a4.239 4.239 0 0 0 0 8.477h13.6a2.753 2.753 0 0 1 2.662 2.063l22.5 86.451a3.282 3.282 0 0 0 3.175 2.456h74.572a.5.5 0 0 0 .5-.5v-7.477a.5.5 0 0 0 -.5-.5h-70.553l-22.286-85.63a7.139 7.139 0 0 0 -6.908-5.34zm116.011 98.44h-74.072a2.282 2.282 0 0 1 -2.207-1.7l-22.5-86.452a3.753 3.753 0 0 0 -3.632-2.807h-13.6a3.239 3.239 0 0 1 0-6.477h16.762a6.139 6.139 0 0 1 5.939 4.591l22.384 86a.5.5 0 0 0 .484.374h70.441zm-116.011-96.44a2.239 2.239 0 0 0 0 4.477h13.6a4.755 4.755 0 0 1 4.6 3.555l22.5 86.452a1.281 1.281 0 0 0 1.239.959h73.072v-4.477h-69.441a1.5 1.5 0 0 1 -1.452-1.126l-22.384-86a5.139 5.139 0 0 0 -4.972-3.84z"/><path d="m117.435 136.34a9.033 9.033 0 1 1 9.026-9.039 9.043 9.043 0 0 1 -9.026 9.039zm0-16.066a7.033 7.033 0 1 0 7.026 7.027 7.035 7.035 0 0 0 -7.026-7.027z"/><path d="m117.435 136.84a9.533 9.533 0 1 1 9.526-9.539 9.544 9.544 0 0 1 -9.526 9.539zm0-18.066a8.533 8.533 0 1 0 8.526 8.527 8.537 8.537 0 0 0 -8.526-8.527zm0 16.066a7.533 7.533 0 1 1 7.526-7.539 7.541 7.541 0 0 1 -7.526 7.539zm0-14.066a6.533 6.533 0 1 0 6.526 6.527 6.534 6.534 0 0 0 -6.526-6.527z"/><path d="m67.8 136.34a9.033 9.033 0 1 1 9.026-9.039 9.043 9.043 0 0 1 -9.026 9.039zm0-16.066a7.033 7.033 0 1 0 7.026 7.027 7.035 7.035 0 0 0 -7.026-7.027z"/><path d="m67.8 136.84a9.533 9.533 0 1 1 9.526-9.539 9.543 9.543 0 0 1 -9.526 9.539zm0-18.066a8.533 8.533 0 1 0 8.526 8.527 8.537 8.537 0 0 0 -8.526-8.527zm0 16.066a7.533 7.533 0 1 1 7.526-7.539 7.541 7.541 0 0 1 -7.526 7.539zm0-14.066a6.533 6.533 0 1 0 6.526 6.527 6.534 6.534 0 0 0 -6.526-6.527z"/><path d="m91.941 89.382a1 1 0 0 1 -1-1v-56.588a1 1 0 1 1 2 0v56.588a1 1 0 0 1 -1 1z"/><path d="m91.941 89.882a1.5 1.5 0 0 1 -1.5-1.5v-56.588a1.5 1.5 0 1 1 3 0v56.588a1.5 1.5 0 0 1 -1.5 1.5zm0-58.588a.5.5 0 0 0 -.5.5v56.588a.5.5 0 0 0 1 0v-56.588a.5.5 0 0 0 -.5-.5z"/><path d="m74.276 89.382a1 1 0 0 1 -.972-.772l-13.292-56.588a1 1 0 0 1 1.947-.457l13.292 56.588a1 1 0 0 1 -.975 1.229z"/><path d="m74.276 89.882a1.494 1.494 0 0 1 -1.459-1.157l-13.292-56.588a1.5 1.5 0 1 1 2.921-.686l13.292 56.588a1.5 1.5 0 0 1 -1.118 1.8 1.558 1.558 0 0 1 -.344.043zm-13.291-58.588a.492.492 0 0 0 -.114.013.5.5 0 0 0 -.372.6l13.292 56.593a.5.5 0 1 0 .973-.228l-13.292-56.592a.5.5 0 0 0 -.487-.386z"/><path d="m109.605 89.382a1 1 0 0 1 -.974-1.229l13.292-56.588a1 1 0 0 1 1.947.457l-13.292 56.588a1 1 0 0 1 -.973.772z"/><path d="m109.605 89.882a1.525 1.525 0 0 1 -.341-.039 1.5 1.5 0 0 1 -1.12-1.8l13.292-56.588a1.5 1.5 0 1 1 2.921.686l-13.292 56.584a1.494 1.494 0 0 1 -1.46 1.157zm13.295-58.588a.5.5 0 0 0 -.487.386l-13.295 56.588a.5.5 0 0 0 .372.6.513.513 0 0 0 .6-.373l13.292-56.588a.5.5 0 0 0 -.372-.6.492.492 0 0 0 -.11-.013z"/><path d="m138.287 50.476h-92.375a1 1 0 0 1 0-2h92.375a1 1 0 0 1 0 2z"/><path d="m138.287 50.976h-92.375a1.5 1.5 0 0 1 0-3h92.375a1.5 1.5 0 0 1 0 3zm-92.375-2a.5.5 0 0 0 0 1h92.375a.5.5 0 0 0 0-1z"/><path d="m136.94 71.7h-85.723a1 1 0 0 1 0-2h85.723a1 1 0 0 1 0 2z"/><path d="m136.94 72.2h-85.723a1.5 1.5 0 0 1 0-3h85.723a1.5 1.5 0 0 1 0 3zm-85.723-2a.5.5 0 0 0 0 1h85.723a.5.5 0 0 0 0-1z"/></svg>