<svg id="Layer_1" enable-background="new 0 0 512 512" height="512" viewBox="0 0 512 512" width="512" xmlns="http://www.w3.org/2000/svg"><g><path d="m45.159 313.768v87.572c0 7.057 5.74 12.797 12.797 12.797h48.21c7.057 0 12.797-5.74 12.797-12.797v-87.572c0-7.057-5.74-12.797-12.797-12.797h-48.21c-7.057 0-12.797 5.74-12.797 12.797zm15 2.203h43.804v83.166h-43.804z"/><path d="m168.894 313.768v87.572c0 7.057 5.74 12.797 12.797 12.797h48.21c7.057 0 12.797-5.74 12.797-12.797v-87.572c0-7.057-5.74-12.797-12.797-12.797h-48.21c-7.057 0-12.797 5.74-12.797 12.797zm15 2.203h43.804v83.166h-43.804z"/><path d="m357.057 51.337c-51.933 0-97.447 27.979-122.281 69.65v-69.227c4.454-2.264 7.52-6.881 7.52-12.21v-25.85c0-7.555-6.146-13.7-13.7-13.7h-45.6c-7.555 0-13.7 6.146-13.7 13.7v25.85c0 5.33 3.066 9.947 7.521 12.211v89.302c0 11.519-5.208 23.123-15.14 31.317-7.499 6.186-13.479 13.753-17.748 22.168-4.269-8.415-10.25-15.982-17.748-22.168-9.868-8.141-15.139-19.713-15.139-31.317v-89.303c4.454-2.264 7.52-6.881 7.52-12.21v-25.85c0-7.555-6.146-13.7-13.7-13.7h-45.6c-7.555 0-13.7 6.146-13.7 13.7v25.85c0 5.33 3.066 9.947 7.521 12.211v89.302c0 11.519-5.208 23.123-15.14 31.317-16.046 13.236-25.248 32.746-25.248 53.525v214.037 43.846c-.002 15.556 12.655 28.212 28.21 28.212h82.312c8.179 0 15.554-3.502 20.711-9.083 5.158 5.58 12.532 9.083 20.712 9.083h82.312c15.556 0 28.211-12.656 28.211-28.212v-43.846-130.109c23.171 16.372 51.428 26.004 81.895 26.004 78.437 0 142.25-63.813 142.25-142.25s-63.815-142.25-142.251-142.25zm-165.242 89.726v-87.813h27.96v87.813c0 .684.015 1.376.043 2.074-8.597 4.603-19.199 4.736-28.046.001.029-.7.043-1.391.043-2.075zm-7.52-126.063h43v23.25h-.02-42.96-.021v-23.25zm-13.074 168.95c8.365-6.901 14.437-15.782 17.739-25.587 9.532 3.874 20.165 4.308 29.94 1.321-2.731 11.119-4.094 22.635-4.094 33.903 0 14.938 2.32 29.342 6.609 42.879h-69.988v-10.561c.001-16.286 7.215-31.578 19.794-41.955zm88.941 113.772v134.721h-108.734v-180.977h75.66c7.562 16.931 18.791 32.957 33.074 46.256zm-164.121-156.659c0 .684.015 1.376.043 2.074-8.597 4.603-19.199 4.736-28.046.001.028-.699.043-1.391.043-2.075v-87.813h27.96zm-35.48-126.063h43v23.25h-.02-42.96-.021v-23.25zm-13.075 168.95c8.365-6.901 14.437-15.782 17.739-25.587 10.521 4.276 22.7 4.458 33.671 0 3.302 9.805 9.373 18.686 17.739 25.587 12.579 10.377 19.793 25.669 19.793 41.955v10.561h-36.867c-4.143 0-7.5 3.357-7.5 7.5s3.357 7.5 7.5 7.5h36.867v180.977h-108.735v-180.977h36.867c4.143 0 7.5-3.357 7.5-7.5s-3.357-7.5-7.5-7.5h-36.867v-10.561c0-16.286 7.214-31.578 19.793-41.955zm75.731 313.05h-82.312c-7.285 0-13.212-5.927-13.212-13.212v-36.346h108.734v36.346c.001 7.285-5.926 13.212-13.21 13.212zm123.734 0h-82.311c-7.285 0-13.212-5.927-13.212-13.212v-36.346h108.734v36.346c0 7.285-5.927 13.212-13.211 13.212zm110.106-176.163c-70.323 0-127.25-57.233-127.25-127.25 0-70.131 57.053-127.25 127.25-127.25 70.166 0 127.25 57.084 127.25 127.25s-57.084 127.25-127.25 127.25z"/><path d="m310.294 255.478c3.303 2.495 8.008 1.843 10.506-1.463l84.481-111.813c2.497-3.305 1.842-8.009-1.463-10.506-3.306-2.497-8.009-1.84-10.506 1.463l-84.481 111.813c-2.497 3.304-1.842 8.008 1.463 10.506z"/><path d="m350.761 163.019c0-16.732-13.613-30.346-30.346-30.346s-30.346 13.613-30.346 30.346 13.613 30.346 30.346 30.346 30.346-13.614 30.346-30.346zm-45.692 0c0-8.462 6.884-15.346 15.346-15.346s15.346 6.884 15.346 15.346-6.884 15.346-15.346 15.346-15.346-6.885-15.346-15.346z"/><path d="m393.698 254.501c16.732 0 30.346-13.613 30.346-30.346s-13.613-30.346-30.346-30.346-30.346 13.613-30.346 30.346 13.614 30.346 30.346 30.346zm0-45.691c8.462 0 15.346 6.884 15.346 15.346s-6.884 15.346-15.346 15.346-15.346-6.884-15.346-15.346 6.884-15.346 15.346-15.346z"/><path d="m357.057 81.337c-61.895 0-112.25 50.355-112.25 112.25s50.355 112.25 112.25 112.25c55.343 0 101.701-40.369 110.676-93.501.689-4.084-2.063-7.954-6.146-8.645-4.083-.688-7.953 2.063-8.645 6.146-7.927 46.934-48.252 80.999-95.885 80.999-53.624 0-97.25-43.626-97.25-97.25s43.626-97.25 97.25-97.25c47.633 0 87.958 34.065 95.885 80.999.69 4.085 4.559 6.842 8.645 6.146 4.084-.69 6.836-4.561 6.146-8.645-8.988-53.205-55.404-93.499-110.676-93.499z"/></g></svg>